<svg xmlns="http://www.w3.org/2000/svg" viewBox="0 0 500 500"><g id="freepik--Graphics--inject-189"><polyline points="89 199 244 220 130 100" style="fill:none;stroke:#000;stroke-miterlimit:10;stroke-dasharray:2"></polyline><line x1="308" y1="85" x2="244" y2="220" style="fill:none;stroke:#000;stroke-miterlimit:10;stroke-dasharray:2"></line><line x1="245.14" y1="215.71" x2="375" y2="185" style="fill:none;stroke:#000;stroke-miterlimit:10;stroke-dasharray:2"></line><rect x="42.12" y="172.38" width="83.71" height="55.09" style="fill:#263238;stroke:#263238;stroke-miterlimit:10"></rect><rect x="58.57" y="172.38" width="50.8" height="55.09" style="fill:#fff;stroke:#263238;stroke-miterlimit:10"></rect><rect x="45.48" y="177.98" width="9.6" height="9.6" rx="2" style="fill:#fff;stroke:#263238;stroke-miterlimit:10"></rect><rect x="45.48" y="188.78" width="9.6" height="9.6" rx="2" style="fill:#fff;stroke:#263238;stroke-miterlimit:10"></rect><rect x="45.48" y="199.57" width="9.6" height="9.6" rx="2" style="fill:#fff;stroke:#263238;stroke-miterlimit:10"></rect><rect x="45.48" y="210.37" width="9.6" height="9.6" rx="2" style="fill:#fff;stroke:#263238;stroke-miterlimit:10"></rect><rect x="113.08" y="177.98" width="9.6" height="9.6" rx="2" style="fill:#fff;stroke:#263238;stroke-miterlimit:10"></rect><rect x="113.08" y="188.78" width="9.6" height="9.6" rx="2" style="fill:#fff;stroke:#263238;stroke-miterlimit:10"></rect><rect x="113.08" y="199.57" width="9.6" height="9.6" rx="2" style="fill:#fff;stroke:#263238;stroke-miterlimit:10"></rect><rect x="113.08" y="210.37" width="9.6" height="9.6" rx="2" style="fill:#fff;stroke:#263238;stroke-miterlimit:10"></rect><polygon points="102.4 199.58 71.25 181.59 71.25 217.57 102.4 199.58" style="fill:#1E90FF"></polygon><rect x="82.76" y="65.5" width="76.34" height="65.93" style="fill:#fff;stroke:#263238;stroke-miterlimit:10"></rect><rect x="87.07" y="69.22" width="67.72" height="58.49" style="fill:#263238;stroke:#263238;stroke-miterlimit:10"></rect><polygon points="154.79 115.09 141.87 99.39 128.32 104.93 109.85 89.54 87.07 102.06 87.07 127.71 154.79 127.71 154.79 115.09" style="fill:#fff;stroke:#263238;stroke-miterlimit:10"></polygon><circle cx="132.63" cy="81.53" r="8.62" style="fill:#fff;stroke:#263238;stroke-miterlimit:10"></circle><rect x="69.22" y="56.26" width="76.34" height="65.93" style="fill:#fff;stroke:#263238;stroke-miterlimit:10"></rect><rect x="73.53" y="59.98" width="67.72" height="58.49" style="fill:#263238;stroke:#263238;stroke-miterlimit:10"></rect><polygon points="141.25 105.85 128.32 90.15 114.78 95.69 96.31 80.3 73.53 92.83 73.53 118.47 141.25 118.47 141.25 105.85" style="fill:#fff;stroke:#263238;stroke-miterlimit:10"></polygon><circle cx="119.09" cy="72.3" r="8.62" style="fill:#1E90FF"></circle><rect x="277.89" y="30.14" width="79.56" height="75.26" style="fill:#fff;stroke:#263238;stroke-miterlimit:10"></rect><path d="M357.45,43.42l-9,16.72L333,58.55c6.57-8,11.82-17.44,13.94-28.41h-4.08C340.56,41,335,50.21,328.13,58.05l-50.24-5.17v4l8.15.84-8.15,21.9V91.11l5.23-14,19.32,2.71c-2.85,1.9-5.52,3.62-7.89,5.13-9.11,5.82-14,12.44-16.66,18v2.5h3.29c2.28-5.13,6.74-11.52,15.52-17.13,3.39-2.17,7.38-4.72,11.61-7.68l27.06,3.79L324,105.4h4.55l11-20.35A11,11,0,0,1,348,96.18l-.39,9.22h4l.37-9.05A15,15,0,0,0,341.5,81.44l9.19-17,6.76.69v-4l-4.71-.48,4.71-8.73Zm-50.16,33-22.75-3.19,5.61-15.06,34.58,3.56A129,129,0,0,1,307.29,76.41Zm30.1,4.22L313,77.21a121.26,121.26,0,0,0,16.78-15L346.38,64Z" style="fill:#263238"></path><path d="M351,105l-3-.26c.53-6,0-10.91-1.51-14.48a10.07,10.07,0,0,0-7.91-5.87L306.71,80a1.52,1.52,0,0,1-1.24-1.08,1.5,1.5,0,0,1,.49-1.56l19.81-16.52-30.93-3,.29-3,34.51,3.35a1.5,1.5,0,0,1,.81,2.65l-20,16.64,28.51,4a13.1,13.1,0,0,1,10.26,7.66C351,93.14,351.56,98.5,351,105Z" style="fill:#1E90FF"></path><path d="M295,23.15A12.45,12.45,0,0,0,282.54,35.6c0,6.88,12.44,20.75,12.44,20.75s12.45-13.87,12.45-20.75A12.45,12.45,0,0,0,295,23.15Zm0,17.52a4.15,4.15,0,1,1,4.15-4.15A4.15,4.15,0,0,1,295,40.67Z" style="fill:#1E90FF"></path><rect x="358" y="135.2" width="90" height="85.13" style="fill:none;stroke:#263238;stroke-linecap:round;stroke-miterlimit:10"></rect><rect x="363.22" y="140.14" width="79.56" height="75.26" style="fill:#fff;stroke:#263238;stroke-linecap:round;stroke-miterlimit:10"></rect><path d="M430.39,184.82a2.58,2.58,0,0,0,2.55-2.06,14,14,0,0,0,.24-2.53,13.76,13.76,0,0,0-13-13.73,13.77,13.77,0,0,0-26.88,4.24c0,.37,0,.74.06,1.11h-.06a10.44,10.44,0,0,0-10.44,10.45v0a2.55,2.55,0,0,0,2.59,2.5Z" style="fill:#1E90FF"></path><path d="M387,174a10.14,10.14,0,1,1,12.5-14.78" style="fill:none;stroke:#263238;stroke-linecap:round;stroke-miterlimit:10;stroke-width:2px"></path><line x1="390.9" y1="145.57" x2="390.9" y2="152.06" style="fill:none;stroke:#263238;stroke-linecap:round;stroke-miterlimit:10;stroke-width:2px"></line><line x1="372.25" y1="163.81" x2="378.33" y2="163.81" style="fill:none;stroke:#263238;stroke-linecap:round;stroke-miterlimit:10;stroke-width:2px"></line><line x1="381.57" y1="173.95" x2="377.11" y2="177.6" style="fill:none;stroke:#263238;stroke-linecap:round;stroke-miterlimit:10;stroke-width:2px"></line><line x1="377.52" y1="150.84" x2="381.98" y2="155.3" style="fill:none;stroke:#263238;stroke-linecap:round;stroke-miterlimit:10;stroke-width:2px"></line><path d="M387.16,203.81a1,1,0,0,0,1-.81,5.36,5.36,0,0,0,.09-1,5.43,5.43,0,0,0-5.13-5.42,5.43,5.43,0,0,0-10.59,1.67,3.15,3.15,0,0,0,0,.44h0a4.11,4.11,0,0,0-4.11,4.12h0a1,1,0,0,0,1,1Z" style="fill:#1E90FF"></path><line x1="371.22" y1="204.46" x2="367.96" y2="209.26" style="fill:none;stroke:#263238;stroke-linecap:round;stroke-miterlimit:10"></line><line x1="381.2" y1="204.46" x2="377.94" y2="209.26" style="fill:none;stroke:#263238;stroke-linecap:round;stroke-miterlimit:10"></line><line x1="374.68" y1="207.53" x2="371.42" y2="212.33" style="fill:none;stroke:#263238;stroke-linecap:round;stroke-miterlimit:10"></line><line x1="384.47" y1="207.53" x2="381.2" y2="212.33" style="fill:none;stroke:#263238;stroke-linecap:round;stroke-miterlimit:10"></line><path d="M413.06,203.81a1,1,0,0,0,1-.81,4.62,4.62,0,0,0,.1-1,5.43,5.43,0,0,0-5.13-5.42,5.43,5.43,0,0,0-10.59,1.67c0,.15,0,.3,0,.44h0a4.12,4.12,0,0,0-4.12,4.12h0a1,1,0,0,0,1,1Z" style="fill:#1E90FF"></path><line x1="397.13" y1="204.46" x2="393.87" y2="209.26" style="fill:none;stroke:#263238;stroke-linecap:round;stroke-miterlimit:10"></line><line x1="407.11" y1="204.46" x2="403.85" y2="209.26" style="fill:none;stroke:#263238;stroke-linecap:round;stroke-miterlimit:10"></line><line x1="400.59" y1="207.53" x2="397.32" y2="212.33" style="fill:none;stroke:#263238;stroke-linecap:round;stroke-miterlimit:10"></line><line x1="410.37" y1="207.53" x2="407.11" y2="212.33" style="fill:none;stroke:#263238;stroke-linecap:round;stroke-miterlimit:10"></line><path d="M439,203.81a1,1,0,0,0,1-.81,5.36,5.36,0,0,0,.09-1,5.43,5.43,0,0,0-5.12-5.42,5.43,5.43,0,0,0-10.59,1.67c0,.15,0,.3,0,.44h0a4.11,4.11,0,0,0-4.12,4.12h0a1,1,0,0,0,1,1Z" style="fill:#1E90FF"></path><line x1="423.04" y1="204.46" x2="419.78" y2="209.26" style="fill:none;stroke:#263238;stroke-linecap:round;stroke-miterlimit:10"></line><line x1="433.02" y1="204.46" x2="429.75" y2="209.26" style="fill:none;stroke:#263238;stroke-linecap:round;stroke-miterlimit:10"></line><line x1="426.49" y1="207.53" x2="423.23" y2="212.33" style="fill:none;stroke:#263238;stroke-linecap:round;stroke-miterlimit:10"></line><line x1="436.28" y1="207.53" x2="433.02" y2="212.33" style="fill:none;stroke:#263238;stroke-linecap:round;stroke-miterlimit:10"></line><path d="M411,109.23h0a21,21,0,0,1-21-21h0a21,21,0,0,1,21-21h0a21,21,0,0,1,21,21h0A21,21,0,0,1,411,109.23Z" style="fill:#263238;stroke:#263238;stroke-miterlimit:10"></path><path d="M423.05,87.76a11.29,11.29,0,0,0-22.56-.21c0,.17,0,.33,0,.5a11.16,11.16,0,0,0,1.61,5.78l-2,6,6.25-2a11.29,11.29,0,0,0,16.74-9.8Zm-11.29,9.7a9.46,9.46,0,0,1-5.22-1.56l-3.64,1.17,1.18-3.5a9.31,9.31,0,0,1-1.81-5.52c0-.31,0-.62.05-.92a9.49,9.49,0,0,1,18.9.18c0,.24,0,.49,0,.74A9.46,9.46,0,0,1,411.76,97.46Z" style="fill:#1E90FF;fill-rule:evenodd"></path><path d="M416.94,90.31c-.28-.14-1.64-.81-1.89-.9s-.44-.13-.63.14a13.29,13.29,0,0,1-.88,1.07c-.16.19-.32.21-.6.07a7.26,7.26,0,0,1-2.22-1.36,8.05,8.05,0,0,1-1.54-1.9c-.16-.27,0-.42.12-.56s.28-.32.42-.48l.1-.13a3.34,3.34,0,0,0,.17-.33.48.48,0,0,0,0-.48c-.07-.14-.62-1.49-.85-2s-.46-.45-.63-.45-.34,0-.53,0a1.05,1.05,0,0,0-.74.34,3.11,3.11,0,0,0-1,2.3,3.67,3.67,0,0,0,.14.93,6,6,0,0,0,1,1.9,11.33,11.33,0,0,0,4.72,4.15c2.82,1.1,2.82.73,3.33.68a2.77,2.77,0,0,0,1.86-1.3,2.43,2.43,0,0,0,.17-1.31C417.4,90.51,417.21,90.44,416.94,90.31Z" style="fill:#1E90FF;fill-rule:evenodd"></path><path d="M210.66,82.07h0a21,21,0,0,1-21-21h0a21,21,0,0,1,21-21h0a21,21,0,0,1,21,21h0A21,21,0,0,1,210.66,82.07Z" style="fill:#263238;stroke:#263238;stroke-miterlimit:10"></path><path d="M207.34,73.78h5.1V61H216l.38-4.28h-3.94V54.29c0-1,.2-1.41,1.18-1.41h2.76V48.44h-3.53c-3.8,0-5.51,1.67-5.51,4.87v3.41h-2.65v4.33h2.65Z" style="fill:#1E90FF"></path><path d="M419.74,281.54h0a21,21,0,0,1-21-21h0a21,21,0,0,1,21-21h0a21,21,0,0,1,21,21h0A21,21,0,0,1,419.74,281.54Z" style="fill:#263238;stroke:#263238;stroke-miterlimit:10"></path><path d="M419.74,251.16c3.07,0,3.43,0,4.64.06a6.31,6.31,0,0,1,2.14.4,3.72,3.72,0,0,1,1.32.86,3.56,3.56,0,0,1,.86,1.32,6.57,6.57,0,0,1,.39,2.13c.06,1.22.07,1.58.07,4.65s0,3.43-.07,4.64a6.51,6.51,0,0,1-.39,2.13,3.68,3.68,0,0,1-.86,1.33,3.72,3.72,0,0,1-1.32.86,6.65,6.65,0,0,1-2.14.39c-1.21.06-1.57.07-4.64.07s-3.43,0-4.65-.07a6.57,6.57,0,0,1-2.13-.39,3.56,3.56,0,0,1-1.32-.86,3.68,3.68,0,0,1-.86-1.33,6.44,6.44,0,0,1-.4-2.13c-.05-1.21-.06-1.57-.06-4.64s0-3.43.06-4.65a6.5,6.5,0,0,1,.4-2.13,3.82,3.82,0,0,1,2.18-2.18,6.24,6.24,0,0,1,2.13-.4c1.22-.05,1.58-.06,4.65-.06m0-2.07c-3.12,0-3.51,0-4.74.07a8.42,8.42,0,0,0-2.79.53,5.46,5.46,0,0,0-2,1.33,5.54,5.54,0,0,0-1.33,2,8.42,8.42,0,0,0-.53,2.79c-.06,1.23-.07,1.62-.07,4.74s0,3.51.07,4.74a8.35,8.35,0,0,0,.53,2.78,5.93,5.93,0,0,0,3.36,3.37A8.68,8.68,0,0,0,415,272c1.23.06,1.62.07,4.74.07s3.51,0,4.74-.07a8.74,8.74,0,0,0,2.79-.53,5.93,5.93,0,0,0,3.36-3.37,8.61,8.61,0,0,0,.53-2.78c.06-1.23.07-1.62.07-4.74s0-3.51-.07-4.74a8.68,8.68,0,0,0-.53-2.79,5.95,5.95,0,0,0-3.36-3.36,8.47,8.47,0,0,0-2.79-.53c-1.23-.06-1.62-.07-4.74-.07" style="fill:#1E90FF"></path><path d="M419.74,254.68a5.9,5.9,0,1,0,5.9,5.9,5.9,5.9,0,0,0-5.9-5.9m0,9.73a3.83,3.83,0,1,1,3.83-3.83,3.83,3.83,0,0,1-3.83,3.83" style="fill:#1E90FF"></path><path d="M427.25,254.44a1.38,1.38,0,1,1-1.38-1.38,1.38,1.38,0,0,1,1.38,1.38" style="fill:#1E90FF"></path><path d="M87,299h0a21,21,0,0,1-21-21h0a21,21,0,0,1,21-21h0a21,21,0,0,1,21,21h0A21,21,0,0,1,87,299Z" style="fill:#263238;stroke:#263238;stroke-miterlimit:10"></path><path d="M75.83,285a13,13,0,0,0,20-11.58,9.22,9.22,0,0,0,2.29-2.37,9.08,9.08,0,0,1-2.63.72,4.57,4.57,0,0,0,2-2.53,9.24,9.24,0,0,1-2.91,1.11,4.59,4.59,0,0,0-7.81,4.18,13,13,0,0,1-9.44-4.79,4.59,4.59,0,0,0,1.42,6.12,4.58,4.58,0,0,1-2.08-.57,4.58,4.58,0,0,0,3.68,4.55,4.79,4.79,0,0,1-2.07.08,4.58,4.58,0,0,0,4.28,3.18A9.26,9.26,0,0,1,75.83,285Z" style="fill:#1E90FF"></path><g style="opacity:0.30000000000000004"><line x1="50.79" y1="133.21" x2="50.79" y2="137.79" style="fill:none;stroke:#000;stroke-linecap:round;stroke-miterlimit:10"></line><line x1="50.79" y1="140.21" x2="50.79" y2="144.79" style="fill:none;stroke:#000;stroke-linecap:round;stroke-miterlimit:10"></line><line x1="45" y1="139" x2="49.58" y2="139" style="fill:none;stroke:#000;stroke-linecap:round;stroke-miterlimit:10"></line><line x1="52" y1="139" x2="56.58" y2="139" style="fill:none;stroke:#000;stroke-linecap:round;stroke-miterlimit:10"></line></g><g style="opacity:0.30000000000000004"><line x1="174.82" y1="45.76" x2="174.82" y2="50.34" style="fill:none;stroke:#000;stroke-linecap:round;stroke-miterlimit:10"></line><line x1="174.82" y1="52.75" x2="174.82" y2="57.33" style="fill:none;stroke:#000;stroke-linecap:round;stroke-miterlimit:10"></line><line x1="169.04" y1="51.55" x2="173.62" y2="51.55" style="fill:none;stroke:#000;stroke-linecap:round;stroke-miterlimit:10"></line><line x1="176.03" y1="51.55" x2="180.61" y2="51.55" style="fill:none;stroke:#000;stroke-linecap:round;stroke-miterlimit:10"></line></g><g style="opacity:0.30000000000000004"><line x1="340.31" y1="214.23" x2="340.31" y2="218.81" style="fill:none;stroke:#000;stroke-linecap:round;stroke-miterlimit:10"></line><line x1="340.31" y1="221.22" x2="340.31" y2="225.8" style="fill:none;stroke:#000;stroke-linecap:round;stroke-miterlimit:10"></line><line x1="334.52" y1="220.01" x2="339.1" y2="220.01" style="fill:none;stroke:#000;stroke-linecap:round;stroke-miterlimit:10"></line><line x1="341.52" y1="220.01" x2="346.1" y2="220.01" style="fill:none;stroke:#000;stroke-linecap:round;stroke-miterlimit:10"></line></g><g style="opacity:0.30000000000000004"><line x1="449.14" y1="106.14" x2="449.14" y2="110.72" style="fill:none;stroke:#000;stroke-linecap:round;stroke-miterlimit:10"></line><line x1="449.14" y1="113.13" x2="449.14" y2="117.71" style="fill:none;stroke:#000;stroke-linecap:round;stroke-miterlimit:10"></line><line x1="443.36" y1="111.93" x2="447.94" y2="111.93" style="fill:none;stroke:#000;stroke-linecap:round;stroke-miterlimit:10"></line><line x1="450.35" y1="111.93" x2="454.93" y2="111.93" style="fill:none;stroke:#000;stroke-linecap:round;stroke-miterlimit:10"></line></g><g style="opacity:0.30000000000000004"><line x1="141.28" y1="317.1" x2="141.28" y2="321.68" style="fill:none;stroke:#000;stroke-linecap:round;stroke-miterlimit:10"></line><line x1="141.28" y1="324.09" x2="141.28" y2="328.67" style="fill:none;stroke:#000;stroke-linecap:round;stroke-miterlimit:10"></line><line x1="135.49" y1="322.88" x2="140.07" y2="322.88" style="fill:none;stroke:#000;stroke-linecap:round;stroke-miterlimit:10"></line><line x1="142.49" y1="322.88" x2="147.07" y2="322.88" style="fill:none;stroke:#000;stroke-linecap:round;stroke-miterlimit:10"></line></g><path d="M147,162.62a3,3,0,1,1-3-3A3,3,0,0,1,147,162.62Z" style="fill:none;stroke:#000;stroke-linecap:round;stroke-miterlimit:10;opacity:0.30000000000000004"></path><path d="M188,94.78a3,3,0,1,1-3-3A3,3,0,0,1,188,94.78Z" style="fill:none;stroke:#000;stroke-linecap:round;stroke-miterlimit:10;opacity:0.30000000000000004"></path><path d="M383.26,249.09a3,3,0,1,1-3-3A3,3,0,0,1,383.26,249.09Z" style="fill:none;stroke:#000;stroke-linecap:round;stroke-miterlimit:10;opacity:0.30000000000000004"></path><path d="M156.65,270.7a3,3,0,1,1-3-3A3,3,0,0,1,156.65,270.7Z" style="fill:none;stroke:#000;stroke-linecap:round;stroke-miterlimit:10;opacity:0.30000000000000004"></path><path d="M126.09,325.87a3,3,0,1,1-3-3A3,3,0,0,1,126.09,325.87Z" style="fill:none;stroke:#000;stroke-linecap:round;stroke-miterlimit:10;opacity:0.30000000000000004"></path><circle cx="429.48" cy="122.36" r="2.98" style="fill:none;stroke:#000;stroke-linecap:round;stroke-miterlimit:10;opacity:0.30000000000000004"></circle><path d="M376.56,24a3,3,0,1,1-3-3A3,3,0,0,1,376.56,24Z" style="fill:none;stroke:#000;stroke-linecap:round;stroke-miterlimit:10;opacity:0.30000000000000004"></path></g><g id="freepik--Character--inject-189"><path d="M211.5,283.5s4,79,6.5,109.5,7.5,50.5,7.5,50.5-5,2-4.5,5l1,6S204,465,206,469a12.24,12.24,0,0,0,5.5,5.5H249s3-5,2.5-9.5-4.5-14-4.5-17,4-2.5,2.5-6.5-3.5-7-3.5-8.5-3.5-128.5-3.5-128.5H252l15,132a7.89,7.89,0,0,0-1.5,4c0,2,1.5,6,1.5,6v3l3.5,24.72h27A19.39,19.39,0,0,0,296,463.5a46.64,46.64,0,0,0-7.5-10L286,444V434s1-4,1.5-6.5,1-9,0-11-.5-86-.5-86l.5-45-46-14.5Z" style="fill:#263238;stroke:#263238;stroke-miterlimit:10"></path><path d="M242,144s-11.5,1-20,12.5-11,129-11,129h76.5S274,179,268,158.5,242,144,242,144Z" style="fill:#fff;stroke:#263238;stroke-miterlimit:10"></path><polygon points="264.5 184.71 271.83 284.86 277.12 284.86 264.5 184.71" style="fill:#263238;stroke:#263238;stroke-miterlimit:10"></polygon><ellipse cx="243.76" cy="151.56" rx="14.8" ry="13.37" style="fill:#fff;stroke:#263238;stroke-miterlimit:10"></ellipse><path d="M223.75,136.19c1,5,2.2,10,3.52,12.87,3.33,7.34,14.33,8.67,19.67,6s7.33-9.33,8.66-16c.17-.82.32-1.79.45-2.87Z" style="fill:#263238;stroke:#263238;stroke-miterlimit:10"></path><path d="M224.33,186s-3.66,67.67-4.33,86.33-2.33,47-2.33,47a90.68,90.68,0,0,1-26-6.66c-13-5.67-14.67-7-14.67-7l16.67-81L169.33,222A199.86,199.86,0,0,1,188,183c12.33-19.67,22.33-27.33,29-31s11.33-6.33,11.33-6.33Z" style="fill:#1E90FF;stroke:#263238;stroke-miterlimit:10"></path><path d="M257,143s3.33,22,6.33,39S277,317.67,277,317.67l31.67-1a439.65,439.65,0,0,0-4.34-76c-6-40-13.66-62-19-74.34S266.67,144.67,262.67,143,257,143,257,143Z" style="fill:#1E90FF;stroke:#263238;stroke-miterlimit:10"></path><path d="M287.5,201s8.5,40.5,9.5,56.5,1.67,27.5,1.67,27.5S303,264,301,245.5,287.5,201,287.5,201Z" style="fill:#263238;stroke:#263238;stroke-miterlimit:10"></path><path d="M225.83,147.09c-2,1.13-5.11,2.86-8.83,4.91a52.43,52.43,0,0,0-9.76,7c2.51,6.18,9.66,22.44,17.09,27l1.5-24.9Z" style="fill:#263238;stroke:#263238;stroke-miterlimit:10"></path><polygon points="214.02 235.6 188.78 251.07 190.82 240.08 214.02 235.6" style="fill:#263238;stroke:#263238;stroke-miterlimit:10"></polygon><line x1="206.12" y1="189.43" x2="207" y2="185" style="fill:#fff;stroke:#263238;stroke-miterlimit:10"></line><line x1="201.33" y1="213.67" x2="205.21" y2="194.06" style="fill:#fff;stroke:#263238;stroke-miterlimit:10"></line><path d="M264,186s1.67-14,7-25.33S279.67,144,274,135s-22.67-19.67-40.33-15.33-25,24-22.67,34S224.33,186,224.33,186s2.67-23.33,6-34.67,9.67-12,19.67-10,8.33,13.34,8.33,13.34Z" style="fill:#fff;stroke:#263238;stroke-miterlimit:10"></path><rect x="215.72" y="115.87" width="9.86" height="19.47" rx="2.34" style="fill:#263238;stroke:#263238;stroke-miterlimit:10"></rect><rect x="219.36" y="115.87" width="2.6" height="19.47" style="fill:#fff;stroke:#263238;stroke-miterlimit:10"></rect><rect x="259.59" y="115.87" width="9.86" height="19.47" rx="2.34" style="fill:#263238;stroke:#263238;stroke-miterlimit:10"></rect><rect x="263.22" y="115.87" width="2.6" height="19.47" style="fill:#fff;stroke:#263238;stroke-miterlimit:10"></rect><path d="M224.33,117.67s2.67,20.66,6,28,14.34,8.66,19.67,6,7.33-9.34,8.67-16,1.66-23.34,1.66-23.34L228,113Z" style="fill:#fff;stroke:#263238;stroke-miterlimit:10"></path><polyline points="245.83 126 246.61 138.19 240.38 138.45" style="fill:none;stroke:#263238;stroke-miterlimit:10"></polyline><path d="M237,140.27s6,3.38,14.27-.52" style="fill:none;stroke:#263238;stroke-miterlimit:10"></path><path d="M225.32,96.47s-4.36,1.7-5.81,9.94,4.28,16,4.28,16l8.88-3.91L223,126.75a24.83,24.83,0,0,0,17.21,1.94,36.58,36.58,0,0,0,15.28-7.76l-1.22,5.82a7.84,7.84,0,0,0,7-4.61c2.43-4.85,5.34-14.31,1-23.52s-17.35-10.41-26.08-9a25.6,25.6,0,0,0-14,7.53Z" style="fill:#263238;stroke:#263238;stroke-miterlimit:10"></path><rect x="229.44" y="177.7" width="17.62" height="38" rx="1.93" style="fill:#263238;stroke:#263238;stroke-miterlimit:10"></rect><path d="M243.2,198.8c-3,0-5.86.31-5.86.31a18.9,18.9,0,0,1,3.33-2.11,24.88,24.88,0,0,1,6.14-1.81,2.54,2.54,0,0,0,1.86-3.86c-1-2-9.79-1.11-15,2.67a21,21,0,0,0-4.08,4l-.26-8.49s-3.09,3.08-3.7,5.24c-.48,1.65-1.48,8.68-1.94,11.92-.64,1-1.21,1.91-1.69,2.62-2.67,4-10.73,3.81-10.73,3.81L211,229.33l15.33-11s8.34-.66,11.34-2,7.66-3,9-4.66.44-3.44,1-4.34a9,9,0,0,0,.66-3.33,8.32,8.32,0,0,0,1-4.67C249,197,246.2,198.8,243.2,198.8Z" style="fill:#fff;stroke:#263238;stroke-miterlimit:10"></path><path d="M248.33,204s-3,.66-6.67,1.28" style="fill:none;stroke:#263238;stroke-linecap:round;stroke-linejoin:round"></path><path d="M247.67,207.33s-4.78,2.26-6.32,3.19" style="fill:none;stroke:#263238;stroke-linecap:round;stroke-linejoin:round"></path><path d="M183,216.33l33-5L217.33,235s-24.33,8.67-36,10.67S163,238,165,229.33s12-25.27,12-25.27" style="fill:#1E90FF;stroke:#263238;stroke-miterlimit:10"></path><circle cx="369.75" cy="409.75" r="64.75" style="fill:#263238;stroke:#263238;stroke-miterlimit:10"></circle><circle cx="369.75" cy="409.75" r="55.25" style="fill:#fff;stroke:#263238;stroke-miterlimit:10"></circle><circle cx="369.75" cy="409.75" r="6.75" style="fill:#fff;stroke:#263238;stroke-miterlimit:10"></circle><circle cx="152.75" cy="409.75" r="64.75" style="fill:#263238;stroke:#263238;stroke-miterlimit:10"></circle><circle cx="152.75" cy="409.75" r="55.25" style="fill:#fff;stroke:#263238;stroke-miterlimit:10"></circle><circle cx="152.75" cy="409.75" r="6.75" style="fill:#fff;stroke:#263238;stroke-miterlimit:10"></circle><path d="M285.53,378.54h0a1.9,1.9,0,0,1,1.89,1.81L289,415.81a3.46,3.46,0,0,1-3.46,3.61h0a3.46,3.46,0,0,1-3.46-3.61l1.57-35.46A1.89,1.89,0,0,1,285.53,378.54Z" style="fill:#fff;stroke:#263238;stroke-miterlimit:10"></path><rect x="275.58" y="375.65" width="21.35" height="4.7" transform="translate(572.5 756) rotate(180)" style="fill:#263238;stroke:#263238;stroke-miterlimit:10"></rect><circle cx="286.25" cy="416.25" r="16.75" style="fill:#fff;stroke:#263238;stroke-miterlimit:10"></circle><path d="M287.81,420.41,172.07,339.18a2.5,2.5,0,0,1,2.88-4.09l109.74,77,25.88-106.68a2.5,2.5,0,1,1,4.86,1.18Z" style="fill:#fff;stroke:#263238;stroke-miterlimit:10"></path><path d="M287.5,419a2.5,2.5,0,0,1-.2-5l82.25-6.75a2.5,2.5,0,1,1,.4,5L287.7,419Z" style="fill:#fff;stroke:#263238;stroke-miterlimit:10"></path><path d="M369.75,412.25a2.49,2.49,0,0,1-2-1l-57.91-77.75a9.21,9.21,0,0,0-7-3.71L177.9,325a2.5,2.5,0,0,1,.2-5l126.58,4.85a10.71,10.71,0,0,1,8.16,4.3l58.91,79.11a2.48,2.48,0,0,1-.51,3.49A2.45,2.45,0,0,1,369.75,412.25Z" style="fill:#fff;stroke:#263238;stroke-miterlimit:10"></path><path d="M152.85,411.77a2.57,2.57,0,0,1-.67-.09,2.49,2.49,0,0,1-1.74-3.07l29.8-107.67-17.45-4.8a2.59,2.59,0,0,1-1.91-3,2.48,2.48,0,0,1,3.1-1.88l18.42,5.06a4.15,4.15,0,0,1,2.89,5.1l-30,108.49A2.5,2.5,0,0,1,152.85,411.77Z" style="fill:#fff;stroke:#263238;stroke-miterlimit:10"></path><path d="M166.3,292.53a5.39,5.39,0,1,0-5.39,5.39A5.39,5.39,0,0,0,166.3,292.53Z" style="fill:#263238;stroke:#263238;stroke-miterlimit:10"></path><path d="M186.82,300.67a5.39,5.39,0,1,0-5.39,5.39A5.39,5.39,0,0,0,186.82,300.67Z" style="fill:#fff;stroke:#263238;stroke-miterlimit:10"></path><path d="M309.51,297.31S285.5,300,284,304s2,5,4,5.5,27.67,1.17,39,0c4-.41,9.5-11,9.5-16.5s-8.5-1-13,.5S309.51,297.31,309.51,297.31Z" style="fill:#263238;stroke:#263238;stroke-miterlimit:10"></path><circle cx="285.89" cy="416.34" r="6.75" style="fill:#fff;stroke:#263238;stroke-miterlimit:10"></circle><path d="M285.53,454.88h0a1.89,1.89,0,0,1-1.89-1.81l-1.57-35.46a3.46,3.46,0,0,1,3.46-3.61h0a3.46,3.46,0,0,1,3.46,3.61l-1.57,35.46A1.9,1.9,0,0,1,285.53,454.88Z" style="fill:#fff;stroke:#263238;stroke-miterlimit:10"></path><rect x="274.13" y="453.07" width="21.35" height="4.7" style="fill:#263238;stroke:#263238;stroke-miterlimit:10"></rect><path d="M299.68,284s-4,5-6.52,6.83a7.73,7.73,0,0,0-3.41,6.06c0,1.86-.63,9.94-.63,10.4s.47,1.09,2,1.24a6.47,6.47,0,0,0,2.95-.46s3.42.93,5,1.24,2.95-.47,4.35-1.86,5-6.37,8.08-10.41,3.72-10.25,3.72-10.25l-15.06-4.35Z" style="fill:#fff;stroke:#263238;stroke-miterlimit:10"></path><path d="M294.09,308.07s.31-4.82.63-7.3,2.64-6.83,2.64-6.83" style="fill:none;stroke:#263238;stroke-miterlimit:10"></path><path d="M296.73,308.69s1.71-6.83,2.18-9.16a15.6,15.6,0,0,1,2.17-4.82" style="fill:none;stroke:#263238;stroke-miterlimit:10"></path><path d="M299.06,309.31s2.8-4.66,3.73-6.83,2.8-6.37,2.8-6.37" style="fill:none;stroke:#263238;stroke-miterlimit:10"></path><path d="M286.33,196.33s14.34,52.34,14,66A205.29,205.29,0,0,1,298.67,285s2.57-.07,10,2.33c8.24,2.67,11,5,11,5s7.66-11.66,8-23.66-6-39.34-13-56.67-27.34-49.33-34-54" style="fill:#1E90FF;stroke:#263238;stroke-miterlimit:10"></path></g></svg>